<?xml version="1.0" encoding="UTF-8"?>
<svg width="64px" height="64px" viewBox="0 0 64 64" version="1.1" xmlns="http://www.w3.org/2000/svg" xmlns:xlink="http://www.w3.org/1999/xlink">
    <title></title>
    <g id="ServicePlugin_1" stroke="none" stroke-width="1" fill="none" fill-rule="evenodd">
        <g id="serviceplugin/vehicleinformationfeature" transform="translate(-850.000000, -1258.000000)">
            <g id="Group-53" transform="translate(400.000000, 342.000000)">
                <g id="Group-41" transform="translate(0.000000, 916.000000)">
                    <g id="Group-48" transform="translate(450.000000, 0.000000)">
                        <g id="area/svg-copy-3" fill="#36F3F6" opacity="0.4">
                            <rect id="Rectangle" x="0" y="0" width="64" height="64"></rect>
                        </g>
                        <g id="home_ic-/parking-/-color_sportscar">
                            <g id="home_ic-/-bonnet-_-color-/-sportcar/--default" fill="#EAAD37">
                                <path d="M53.40208,29.83408 C53.91408,30.20528 54.49808,30.64688 54.49808,31.54128 L54.49808,34.97648 C54.49808,35.51728 54.18768,36.01008 53.69968,36.24528 L50.57168,37.75408 C50.42448,37.82448 50.26128,37.86128 50.09808,37.86128 L49.2838887,37.8609612 C49.2938144,37.7438447 49.29888,37.6253213 49.29888,37.5056 C49.29888,35.2432 47.49248,33.4096 45.26368,33.4096 C43.03488,33.4096 41.22688,35.2432 41.22688,37.5056 C41.22688,37.6253213 41.2319501,37.7438447 41.2418843,37.8609612 L21.1766884,37.8609612 C21.1866144,37.7438447 21.19168,37.6253213 21.19168,37.5056 C21.19168,35.2432 19.38528,33.4096 17.15488,33.4096 C14.92608,33.4096 13.11968,35.2432 13.11968,37.5056 C13.11968,37.6253213 13.1247456,37.7438447 13.1346713,37.8609612 L9.88528,37.86128 C8.48848,37.86128 8.21968,36.84688 8.16048,36.27888 C8.16048,36.27888 7.80848,35.16848 9.65648,33.06768 C11.66288,30.78768 13.62448,30.20048 14.31728,30.02128 C16.69968,29.40208 17.86768,29.69968 20.11728,29.56848 C23.89168,29.34768 25.97008,28.56688 25.97008,28.56688 C26.40848,28.35728 26.74288,28.20208 27.36048,28.69648 L28.94448,29.80048 C29.04048,29.86608 29.15408,29.90288 29.26928,29.90288 L37.90768,29.95568 C38.31248,29.95888 38.70768,29.91088 39.09968,29.80848 C40.44368,29.45648 43.87728,28.59728 46.26288,28.33648 C50.24528,27.90448 53.40208,29.83408 53.40208,29.83408 Z" id="Combined-Shape"></path>
                            </g>
                            <g id="home_ic/parking/homhome_ic_status_parking_sportscar" stroke="#505050" stroke-width="2">
                                <g id="Group" transform="translate(8.133693, 23.330880)">
                                    <path d="M18.1699025,5.06024295 C20.9515887,3.57563373 23.1819872,1.5552 23.1819872,1.5552 C24.1867872,0.7424 25.5451872,0 26.8395872,0 L29.1835872,0 L22.5867872,6.5808" id="Stroke-3" stroke-linecap="round" stroke-linejoin="round"></path>
                                    <path d="M33.6666561,5.83947694 C33.789423,5.37299762 33.9735734,4.67327864 34.2191072,3.74032 C34.3903072,3.08592 34.9807072,2.62992 35.6575072,2.62992 L37.0463072,2.62992 C37.4495072,2.62992 37.7759072,2.95632 37.7759072,3.35952 C37.7759072,4.29712 37.7759072,5.00032 37.7759072,5.46912" id="Path"></path>
                                    <line x1="42.1154272" y1="8.66912" x2="46.5090272" y2="8.66912" id="Stroke-9"></line>
                                    <path d="M33.4663072,14.5304 C24.60722,14.5304 17.6738894,14.5304 12.6663072,14.5304 M4.66630716,14.5304 C4.05474248,14.5304 3.08316915,14.5304 1.75158716,14.5304 C0.354787158,14.5304 0.0859871581,13.516 0.0267871581,12.948 C0.0267871581,12.948 -0.325212842,11.8376 1.52278716,9.7368 C3.52918716,7.4568 5.49078716,6.8696 6.18358716,6.6904 C8.56598716,6.0712 9.73398716,6.3688 11.9835872,6.2376 C15.7579872,6.0168 17.8363872,5.236 17.8363872,5.236 C18.2747872,5.0264 18.6091872,4.8712 19.2267872,5.3656 L20.8107872,6.4696 C20.9067872,6.5352 21.0203872,6.572 21.1355872,6.572 L22.5867872,6.5816 L29.7739872,6.6248 C30.1787872,6.628 30.5739872,6.58 30.9659872,6.4776 C32.3099872,6.1256 35.7435872,5.2664 38.1291872,5.0056 C42.1115872,4.5736 45.2683872,6.5032 45.2683872,6.5032 C45.7803872,6.8744 46.3643872,7.316 46.3643872,8.2104 L46.3643872,11.6456 C46.3643872,12.1864 46.0539872,12.6792 45.5659872,12.9144 L42.4379872,14.4232 C42.2907872,14.4936 42.1275872,14.5304 41.9643872,14.5304 C41.7417038,14.5304 41.5756771,14.5304 41.4663072,14.5304" id="Shape"></path>
                                    <path d="M37.1303072,10.07872 C39.3575072,10.07872 41.1655072,11.91232 41.1655072,14.17472 C41.1655072,16.43552 39.3575072,18.26912 37.1303072,18.26912 C34.8999072,18.26912 33.0935072,16.43552 33.0935072,14.17472 C33.0935072,11.91232 34.8999072,10.07872 37.1303072,10.07872 Z" id="Stroke-15"></path>
                                    <path d="M9.02150716,10.07872 C11.2519072,10.07872 13.0583072,11.91232 13.0583072,14.17472 C13.0583072,16.43552 11.2519072,18.26912 9.02150716,18.26912 C6.79110716,18.26912 4.98630716,16.43552 4.98630716,14.17472 C4.98630716,11.91232 6.79110716,10.07872 9.02150716,10.07872 Z" id="Stroke-19"></path>
                                </g>
                            </g>
                        </g>
                    </g>
                </g>
            </g>
            <g id="Group-53" transform="translate(400.000000, 342.000000)">
                <g id="Group-41" transform="translate(0.000000, 916.000000)">
                    <g id="Group-48" transform="translate(450.000000, 0.000000)">
                        <g id="area/svg-copy-3" fill="#36F3F6" opacity="0.4">
                            <rect id="Rectangle" x="0" y="0" width="64" height="64"></rect>
                        </g>
                        <g id="home_ic-/parking-/-color_sportscar">
                            <g id="home_ic-/-bonnet-_-color-/-sportcar/--default" fill="#EAAD37">
                                <path d="M53.40208,29.83408 C53.91408,30.20528 54.49808,30.64688 54.49808,31.54128 L54.49808,34.97648 C54.49808,35.51728 54.18768,36.01008 53.69968,36.24528 L50.57168,37.75408 C50.42448,37.82448 50.26128,37.86128 50.09808,37.86128 L49.2838887,37.8609612 C49.2938144,37.7438447 49.29888,37.6253213 49.29888,37.5056 C49.29888,35.2432 47.49248,33.4096 45.26368,33.4096 C43.03488,33.4096 41.22688,35.2432 41.22688,37.5056 C41.22688,37.6253213 41.2319501,37.7438447 41.2418843,37.8609612 L21.1766884,37.8609612 C21.1866144,37.7438447 21.19168,37.6253213 21.19168,37.5056 C21.19168,35.2432 19.38528,33.4096 17.15488,33.4096 C14.92608,33.4096 13.11968,35.2432 13.11968,37.5056 C13.11968,37.6253213 13.1247456,37.7438447 13.1346713,37.8609612 L9.88528,37.86128 C8.48848,37.86128 8.21968,36.84688 8.16048,36.27888 C8.16048,36.27888 7.80848,35.16848 9.65648,33.06768 C11.66288,30.78768 13.62448,30.20048 14.31728,30.02128 C16.69968,29.40208 17.86768,29.69968 20.11728,29.56848 C23.89168,29.34768 25.97008,28.56688 25.97008,28.56688 C26.40848,28.35728 26.74288,28.20208 27.36048,28.69648 L28.94448,29.80048 C29.04048,29.86608 29.15408,29.90288 29.26928,29.90288 L37.90768,29.95568 C38.31248,29.95888 38.70768,29.91088 39.09968,29.80848 C40.44368,29.45648 43.87728,28.59728 46.26288,28.33648 C50.24528,27.90448 53.40208,29.83408 53.40208,29.83408 Z" id="Combined-Shape"></path>
                            </g>
                            <g id="home_ic/parking/homhome_ic_status_parking_sportscar" stroke="#505050" stroke-width="2">
                                <g id="Group" transform="translate(8.133693, 23.330880)">
                                    <path d="M18.1699025,5.06024295 C20.9515887,3.57563373 23.1819872,1.5552 23.1819872,1.5552 C24.1867872,0.7424 25.5451872,0 26.8395872,0 L29.1835872,0 L22.5867872,6.5808" id="Stroke-3" stroke-linecap="round" stroke-linejoin="round"></path>
                                    <path d="M33.6666561,5.83947694 C33.789423,5.37299762 33.9735734,4.67327864 34.2191072,3.74032 C34.3903072,3.08592 34.9807072,2.62992 35.6575072,2.62992 L37.0463072,2.62992 C37.4495072,2.62992 37.7759072,2.95632 37.7759072,3.35952 C37.7759072,4.29712 37.7759072,5.00032 37.7759072,5.46912" id="Path"></path>
                                    <line x1="42.1154272" y1="8.66912" x2="46.5090272" y2="8.66912" id="Stroke-9"></line>
                                    <path d="M33.4663072,14.5304 C24.60722,14.5304 17.6738894,14.5304 12.6663072,14.5304 M4.66630716,14.5304 C4.05474248,14.5304 3.08316915,14.5304 1.75158716,14.5304 C0.354787158,14.5304 0.0859871581,13.516 0.0267871581,12.948 C0.0267871581,12.948 -0.325212842,11.8376 1.52278716,9.7368 C3.52918716,7.4568 5.49078716,6.8696 6.18358716,6.6904 C8.56598716,6.0712 9.73398716,6.3688 11.9835872,6.2376 C15.7579872,6.0168 17.8363872,5.236 17.8363872,5.236 C18.2747872,5.0264 18.6091872,4.8712 19.2267872,5.3656 L20.8107872,6.4696 C20.9067872,6.5352 21.0203872,6.572 21.1355872,6.572 L22.5867872,6.5816 L29.7739872,6.6248 C30.1787872,6.628 30.5739872,6.58 30.9659872,6.4776 C32.3099872,6.1256 35.7435872,5.2664 38.1291872,5.0056 C42.1115872,4.5736 45.2683872,6.5032 45.2683872,6.5032 C45.7803872,6.8744 46.3643872,7.316 46.3643872,8.2104 L46.3643872,11.6456 C46.3643872,12.1864 46.0539872,12.6792 45.5659872,12.9144 L42.4379872,14.4232 C42.2907872,14.4936 42.1275872,14.5304 41.9643872,14.5304 C41.7417038,14.5304 41.5756771,14.5304 41.4663072,14.5304" id="Shape"></path>
                                    <path d="M37.1303072,10.07872 C39.3575072,10.07872 41.1655072,11.91232 41.1655072,14.17472 C41.1655072,16.43552 39.3575072,18.26912 37.1303072,18.26912 C34.8999072,18.26912 33.0935072,16.43552 33.0935072,14.17472 C33.0935072,11.91232 34.8999072,10.07872 37.1303072,10.07872 Z" id="Stroke-15"></path>
                                    <path d="M9.02150716,10.07872 C11.2519072,10.07872 13.0583072,11.91232 13.0583072,14.17472 C13.0583072,16.43552 11.2519072,18.26912 9.02150716,18.26912 C6.79110716,18.26912 4.98630716,16.43552 4.98630716,14.17472 C4.98630716,11.91232 6.79110716,10.07872 9.02150716,10.07872 Z" id="Stroke-19"></path>
                                </g>
                            </g>
                        </g>
                    </g>
                </g>
                <g id="Group-41" transform="translate(0.000000, 916.000000)">
                    <g id="Group-48" transform="translate(450.000000, 0.000000)">
                        <g id="area/svg-copy-3" fill="#36F3F6" opacity="0.4">
                            <rect id="Rectangle" x="0" y="0" width="64" height="64"></rect>
                        </g>
                        <g id="home_ic-/parking-/-color_sportscar">
                            <g id="home_ic-/-bonnet-_-color-/-sportcar/--default" fill="#EAAD37">
                                <path d="M53.40208,29.83408 C53.91408,30.20528 54.49808,30.64688 54.49808,31.54128 L54.49808,34.97648 C54.49808,35.51728 54.18768,36.01008 53.69968,36.24528 L50.57168,37.75408 C50.42448,37.82448 50.26128,37.86128 50.09808,37.86128 L49.2838887,37.8609612 C49.2938144,37.7438447 49.29888,37.6253213 49.29888,37.5056 C49.29888,35.2432 47.49248,33.4096 45.26368,33.4096 C43.03488,33.4096 41.22688,35.2432 41.22688,37.5056 C41.22688,37.6253213 41.2319501,37.7438447 41.2418843,37.8609612 L21.1766884,37.8609612 C21.1866144,37.7438447 21.19168,37.6253213 21.19168,37.5056 C21.19168,35.2432 19.38528,33.4096 17.15488,33.4096 C14.92608,33.4096 13.11968,35.2432 13.11968,37.5056 C13.11968,37.6253213 13.1247456,37.7438447 13.1346713,37.8609612 L9.88528,37.86128 C8.48848,37.86128 8.21968,36.84688 8.16048,36.27888 C8.16048,36.27888 7.80848,35.16848 9.65648,33.06768 C11.66288,30.78768 13.62448,30.20048 14.31728,30.02128 C16.69968,29.40208 17.86768,29.69968 20.11728,29.56848 C23.89168,29.34768 25.97008,28.56688 25.97008,28.56688 C26.40848,28.35728 26.74288,28.20208 27.36048,28.69648 L28.94448,29.80048 C29.04048,29.86608 29.15408,29.90288 29.26928,29.90288 L37.90768,29.95568 C38.31248,29.95888 38.70768,29.91088 39.09968,29.80848 C40.44368,29.45648 43.87728,28.59728 46.26288,28.33648 C50.24528,27.90448 53.40208,29.83408 53.40208,29.83408 Z" id="Combined-Shape"></path>
                            </g>
                            <g id="home_ic/parking/homhome_ic_status_parking_sportscar" stroke="#505050" stroke-width="2">
                                <g id="Group" transform="translate(8.133693, 23.330880)">
                                    <path d="M18.1699025,5.06024295 C20.9515887,3.57563373 23.1819872,1.5552 23.1819872,1.5552 C24.1867872,0.7424 25.5451872,0 26.8395872,0 L29.1835872,0 L22.5867872,6.5808" id="Stroke-3" stroke-linecap="round" stroke-linejoin="round"></path>
                                    <path d="M33.6666561,5.83947694 C33.789423,5.37299762 33.9735734,4.67327864 34.2191072,3.74032 C34.3903072,3.08592 34.9807072,2.62992 35.6575072,2.62992 L37.0463072,2.62992 C37.4495072,2.62992 37.7759072,2.95632 37.7759072,3.35952 C37.7759072,4.29712 37.7759072,5.00032 37.7759072,5.46912" id="Path"></path>
                                    <line x1="42.1154272" y1="8.66912" x2="46.5090272" y2="8.66912" id="Stroke-9"></line>
                                    <path d="M33.4663072,14.5304 C24.60722,14.5304 17.6738894,14.5304 12.6663072,14.5304 M4.66630716,14.5304 C4.05474248,14.5304 3.08316915,14.5304 1.75158716,14.5304 C0.354787158,14.5304 0.0859871581,13.516 0.0267871581,12.948 C0.0267871581,12.948 -0.325212842,11.8376 1.52278716,9.7368 C3.52918716,7.4568 5.49078716,6.8696 6.18358716,6.6904 C8.56598716,6.0712 9.73398716,6.3688 11.9835872,6.2376 C15.7579872,6.0168 17.8363872,5.236 17.8363872,5.236 C18.2747872,5.0264 18.6091872,4.8712 19.2267872,5.3656 L20.8107872,6.4696 C20.9067872,6.5352 21.0203872,6.572 21.1355872,6.572 L22.5867872,6.5816 L29.7739872,6.6248 C30.1787872,6.628 30.5739872,6.58 30.9659872,6.4776 C32.3099872,6.1256 35.7435872,5.2664 38.1291872,5.0056 C42.1115872,4.5736 45.2683872,6.5032 45.2683872,6.5032 C45.7803872,6.8744 46.3643872,7.316 46.3643872,8.2104 L46.3643872,11.6456 C46.3643872,12.1864 46.0539872,12.6792 45.5659872,12.9144 L42.4379872,14.4232 C42.2907872,14.4936 42.1275872,14.5304 41.9643872,14.5304 C41.7417038,14.5304 41.5756771,14.5304 41.4663072,14.5304" id="Shape"></path>
                                    <path d="M37.1303072,10.07872 C39.3575072,10.07872 41.1655072,11.91232 41.1655072,14.17472 C41.1655072,16.43552 39.3575072,18.26912 37.1303072,18.26912 C34.8999072,18.26912 33.0935072,16.43552 33.0935072,14.17472 C33.0935072,11.91232 34.8999072,10.07872 37.1303072,10.07872 Z" id="Stroke-15"></path>
                                    <path d="M9.02150716,10.07872 C11.2519072,10.07872 13.0583072,11.91232 13.0583072,14.17472 C13.0583072,16.43552 11.2519072,18.26912 9.02150716,18.26912 C6.79110716,18.26912 4.98630716,16.43552 4.98630716,14.17472 C4.98630716,11.91232 6.79110716,10.07872 9.02150716,10.07872 Z" id="Stroke-19"></path>
                                </g>
                            </g>
                        </g>
                    </g>
                    <g id="Group-48" transform="translate(450.000000, 0.000000)">
                        <g id="area/svg-copy-3" fill="#36F3F6" opacity="0.4">
                            <rect id="Rectangle" x="0" y="0" width="64" height="64"></rect>
                        </g>
                        <g id="home_ic-/parking-/-color_sportscar">
                            <g id="home_ic-/-bonnet-_-color-/-sportcar/--default" fill="#EAAD37">
                                <path d="M53.40208,29.83408 C53.91408,30.20528 54.49808,30.64688 54.49808,31.54128 L54.49808,34.97648 C54.49808,35.51728 54.18768,36.01008 53.69968,36.24528 L50.57168,37.75408 C50.42448,37.82448 50.26128,37.86128 50.09808,37.86128 L49.2838887,37.8609612 C49.2938144,37.7438447 49.29888,37.6253213 49.29888,37.5056 C49.29888,35.2432 47.49248,33.4096 45.26368,33.4096 C43.03488,33.4096 41.22688,35.2432 41.22688,37.5056 C41.22688,37.6253213 41.2319501,37.7438447 41.2418843,37.8609612 L21.1766884,37.8609612 C21.1866144,37.7438447 21.19168,37.6253213 21.19168,37.5056 C21.19168,35.2432 19.38528,33.4096 17.15488,33.4096 C14.92608,33.4096 13.11968,35.2432 13.11968,37.5056 C13.11968,37.6253213 13.1247456,37.7438447 13.1346713,37.8609612 L9.88528,37.86128 C8.48848,37.86128 8.21968,36.84688 8.16048,36.27888 C8.16048,36.27888 7.80848,35.16848 9.65648,33.06768 C11.66288,30.78768 13.62448,30.20048 14.31728,30.02128 C16.69968,29.40208 17.86768,29.69968 20.11728,29.56848 C23.89168,29.34768 25.97008,28.56688 25.97008,28.56688 C26.40848,28.35728 26.74288,28.20208 27.36048,28.69648 L28.94448,29.80048 C29.04048,29.86608 29.15408,29.90288 29.26928,29.90288 L37.90768,29.95568 C38.31248,29.95888 38.70768,29.91088 39.09968,29.80848 C40.44368,29.45648 43.87728,28.59728 46.26288,28.33648 C50.24528,27.90448 53.40208,29.83408 53.40208,29.83408 Z" id="Combined-Shape"></path>
                            </g>
                            <g id="home_ic/parking/homhome_ic_status_parking_sportscar" stroke="#505050" stroke-width="2">
                                <g id="Group" transform="translate(8.133693, 23.330880)">
                                    <path d="M18.1699025,5.06024295 C20.9515887,3.57563373 23.1819872,1.5552 23.1819872,1.5552 C24.1867872,0.7424 25.5451872,0 26.8395872,0 L29.1835872,0 L22.5867872,6.5808" id="Stroke-3" stroke-linecap="round" stroke-linejoin="round"></path>
                                    <path d="M33.6666561,5.83947694 C33.789423,5.37299762 33.9735734,4.67327864 34.2191072,3.74032 C34.3903072,3.08592 34.9807072,2.62992 35.6575072,2.62992 L37.0463072,2.62992 C37.4495072,2.62992 37.7759072,2.95632 37.7759072,3.35952 C37.7759072,4.29712 37.7759072,5.00032 37.7759072,5.46912" id="Path"></path>
                                    <line x1="42.1154272" y1="8.66912" x2="46.5090272" y2="8.66912" id="Stroke-9"></line>
                                    <path d="M33.4663072,14.5304 C24.60722,14.5304 17.6738894,14.5304 12.6663072,14.5304 M4.66630716,14.5304 C4.05474248,14.5304 3.08316915,14.5304 1.75158716,14.5304 C0.354787158,14.5304 0.0859871581,13.516 0.0267871581,12.948 C0.0267871581,12.948 -0.325212842,11.8376 1.52278716,9.7368 C3.52918716,7.4568 5.49078716,6.8696 6.18358716,6.6904 C8.56598716,6.0712 9.73398716,6.3688 11.9835872,6.2376 C15.7579872,6.0168 17.8363872,5.236 17.8363872,5.236 C18.2747872,5.0264 18.6091872,4.8712 19.2267872,5.3656 L20.8107872,6.4696 C20.9067872,6.5352 21.0203872,6.572 21.1355872,6.572 L22.5867872,6.5816 L29.7739872,6.6248 C30.1787872,6.628 30.5739872,6.58 30.9659872,6.4776 C32.3099872,6.1256 35.7435872,5.2664 38.1291872,5.0056 C42.1115872,4.5736 45.2683872,6.5032 45.2683872,6.5032 C45.7803872,6.8744 46.3643872,7.316 46.3643872,8.2104 L46.3643872,11.6456 C46.3643872,12.1864 46.0539872,12.6792 45.5659872,12.9144 L42.4379872,14.4232 C42.2907872,14.4936 42.1275872,14.5304 41.9643872,14.5304 C41.7417038,14.5304 41.5756771,14.5304 41.4663072,14.5304" id="Shape"></path>
                                    <path d="M37.1303072,10.07872 C39.3575072,10.07872 41.1655072,11.91232 41.1655072,14.17472 C41.1655072,16.43552 39.3575072,18.26912 37.1303072,18.26912 C34.8999072,18.26912 33.0935072,16.43552 33.0935072,14.17472 C33.0935072,11.91232 34.8999072,10.07872 37.1303072,10.07872 Z" id="Stroke-15"></path>
                                    <path d="M9.02150716,10.07872 C11.2519072,10.07872 13.0583072,11.91232 13.0583072,14.17472 C13.0583072,16.43552 11.2519072,18.26912 9.02150716,18.26912 C6.79110716,18.26912 4.98630716,16.43552 4.98630716,14.17472 C4.98630716,11.91232 6.79110716,10.07872 9.02150716,10.07872 Z" id="Stroke-19"></path>
                                </g>
                            </g>
                        </g>
                        <g id="Group">
                            <g id="home_ic-/parking-/-color_sportscar">
                                <g id="home_ic-/-bonnet-_-color-/-sportcar/--default" fill="#EAAD37">
                                    <path d="M53.40208,29.83408 C53.91408,30.20528 54.49808,30.64688 54.49808,31.54128 L54.49808,34.97648 C54.49808,35.51728 54.18768,36.01008 53.69968,36.24528 L50.57168,37.75408 C50.42448,37.82448 50.26128,37.86128 50.09808,37.86128 L49.2838887,37.8609612 C49.2938144,37.7438447 49.29888,37.6253213 49.29888,37.5056 C49.29888,35.2432 47.49248,33.4096 45.26368,33.4096 C43.03488,33.4096 41.22688,35.2432 41.22688,37.5056 C41.22688,37.6253213 41.2319501,37.7438447 41.2418843,37.8609612 L21.1766884,37.8609612 C21.1866144,37.7438447 21.19168,37.6253213 21.19168,37.5056 C21.19168,35.2432 19.38528,33.4096 17.15488,33.4096 C14.92608,33.4096 13.11968,35.2432 13.11968,37.5056 C13.11968,37.6253213 13.1247456,37.7438447 13.1346713,37.8609612 L9.88528,37.86128 C8.48848,37.86128 8.21968,36.84688 8.16048,36.27888 C8.16048,36.27888 7.80848,35.16848 9.65648,33.06768 C11.66288,30.78768 13.62448,30.20048 14.31728,30.02128 C16.69968,29.40208 17.86768,29.69968 20.11728,29.56848 C23.89168,29.34768 25.97008,28.56688 25.97008,28.56688 C26.40848,28.35728 26.74288,28.20208 27.36048,28.69648 L28.94448,29.80048 C29.04048,29.86608 29.15408,29.90288 29.26928,29.90288 L37.90768,29.95568 C38.31248,29.95888 38.70768,29.91088 39.09968,29.80848 C40.44368,29.45648 43.87728,28.59728 46.26288,28.33648 C50.24528,27.90448 53.40208,29.83408 53.40208,29.83408 Z" id="Combined-Shape"></path>
                                </g>
                                <g id="home_ic/parking/homhome_ic_status_parking_sportscar" stroke="#505050" stroke-width="2">
                                    <g id="Group" transform="translate(8.133693, 23.330880)">
                                        <path d="M18.1699025,5.06024295 C20.9515887,3.57563373 23.1819872,1.5552 23.1819872,1.5552 C24.1867872,0.7424 25.5451872,0 26.8395872,0 L29.1835872,0 L22.5867872,6.5808" id="Stroke-3" stroke-linecap="round" stroke-linejoin="round"></path>
                                        <path d="M33.6666561,5.83947694 C33.789423,5.37299762 33.9735734,4.67327864 34.2191072,3.74032 C34.3903072,3.08592 34.9807072,2.62992 35.6575072,2.62992 L37.0463072,2.62992 C37.4495072,2.62992 37.7759072,2.95632 37.7759072,3.35952 C37.7759072,4.29712 37.7759072,5.00032 37.7759072,5.46912" id="Path"></path>
                                        <line x1="42.1154272" y1="8.66912" x2="46.5090272" y2="8.66912" id="Stroke-9"></line>
                                        <path d="M33.4663072,14.5304 C24.60722,14.5304 17.6738894,14.5304 12.6663072,14.5304 M4.66630716,14.5304 C4.05474248,14.5304 3.08316915,14.5304 1.75158716,14.5304 C0.354787158,14.5304 0.0859871581,13.516 0.0267871581,12.948 C0.0267871581,12.948 -0.325212842,11.8376 1.52278716,9.7368 C3.52918716,7.4568 5.49078716,6.8696 6.18358716,6.6904 C8.56598716,6.0712 9.73398716,6.3688 11.9835872,6.2376 C15.7579872,6.0168 17.8363872,5.236 17.8363872,5.236 C18.2747872,5.0264 18.6091872,4.8712 19.2267872,5.3656 L20.8107872,6.4696 C20.9067872,6.5352 21.0203872,6.572 21.1355872,6.572 L22.5867872,6.5816 L29.7739872,6.6248 C30.1787872,6.628 30.5739872,6.58 30.9659872,6.4776 C32.3099872,6.1256 35.7435872,5.2664 38.1291872,5.0056 C42.1115872,4.5736 45.2683872,6.5032 45.2683872,6.5032 C45.7803872,6.8744 46.3643872,7.316 46.3643872,8.2104 L46.3643872,11.6456 C46.3643872,12.1864 46.0539872,12.6792 45.5659872,12.9144 L42.4379872,14.4232 C42.2907872,14.4936 42.1275872,14.5304 41.9643872,14.5304 C41.7417038,14.5304 41.5756771,14.5304 41.4663072,14.5304" id="Shape"></path>
                                        <path d="M37.1303072,10.07872 C39.3575072,10.07872 41.1655072,11.91232 41.1655072,14.17472 C41.1655072,16.43552 39.3575072,18.26912 37.1303072,18.26912 C34.8999072,18.26912 33.0935072,16.43552 33.0935072,14.17472 C33.0935072,11.91232 34.8999072,10.07872 37.1303072,10.07872 Z" id="Stroke-15"></path>
                                        <path d="M9.02150716,10.07872 C11.2519072,10.07872 13.0583072,11.91232 13.0583072,14.17472 C13.0583072,16.43552 11.2519072,18.26912 9.02150716,18.26912 C6.79110716,18.26912 4.98630716,16.43552 4.98630716,14.17472 C4.98630716,11.91232 6.79110716,10.07872 9.02150716,10.07872 Z" id="Stroke-19"></path>
                                    </g>
                                </g>
                            </g>
                            <g id="home_ic-/parking-/-color_sportscar">
                                <g id="home_ic-/-bonnet-_-color-/-sportcar/--default" fill="#EAAD37">
                                    <path d="M53.40208,29.83408 C53.91408,30.20528 54.49808,30.64688 54.49808,31.54128 L54.49808,34.97648 C54.49808,35.51728 54.18768,36.01008 53.69968,36.24528 L50.57168,37.75408 C50.42448,37.82448 50.26128,37.86128 50.09808,37.86128 L49.2838887,37.8609612 C49.2938144,37.7438447 49.29888,37.6253213 49.29888,37.5056 C49.29888,35.2432 47.49248,33.4096 45.26368,33.4096 C43.03488,33.4096 41.22688,35.2432 41.22688,37.5056 C41.22688,37.6253213 41.2319501,37.7438447 41.2418843,37.8609612 L21.1766884,37.8609612 C21.1866144,37.7438447 21.19168,37.6253213 21.19168,37.5056 C21.19168,35.2432 19.38528,33.4096 17.15488,33.4096 C14.92608,33.4096 13.11968,35.2432 13.11968,37.5056 C13.11968,37.6253213 13.1247456,37.7438447 13.1346713,37.8609612 L9.88528,37.86128 C8.48848,37.86128 8.21968,36.84688 8.16048,36.27888 C8.16048,36.27888 7.80848,35.16848 9.65648,33.06768 C11.66288,30.78768 13.62448,30.20048 14.31728,30.02128 C16.69968,29.40208 17.86768,29.69968 20.11728,29.56848 C23.89168,29.34768 25.97008,28.56688 25.97008,28.56688 C26.40848,28.35728 26.74288,28.20208 27.36048,28.69648 L28.94448,29.80048 C29.04048,29.86608 29.15408,29.90288 29.26928,29.90288 L37.90768,29.95568 C38.31248,29.95888 38.70768,29.91088 39.09968,29.80848 C40.44368,29.45648 43.87728,28.59728 46.26288,28.33648 C50.24528,27.90448 53.40208,29.83408 53.40208,29.83408 Z" id="Combined-Shape"></path>
                                </g>
                                <g id="home_ic/parking/homhome_ic_status_parking_sportscar" stroke="#505050" stroke-width="2">
                                    <g id="Group" transform="translate(8.133693, 23.330880)">
                                        <path d="M18.1699025,5.06024295 C20.9515887,3.57563373 23.1819872,1.5552 23.1819872,1.5552 C24.1867872,0.7424 25.5451872,0 26.8395872,0 L29.1835872,0 L22.5867872,6.5808" id="Stroke-3" stroke-linecap="round" stroke-linejoin="round"></path>
                                        <path d="M33.6666561,5.83947694 C33.789423,5.37299762 33.9735734,4.67327864 34.2191072,3.74032 C34.3903072,3.08592 34.9807072,2.62992 35.6575072,2.62992 L37.0463072,2.62992 C37.4495072,2.62992 37.7759072,2.95632 37.7759072,3.35952 C37.7759072,4.29712 37.7759072,5.00032 37.7759072,5.46912" id="Path"></path>
                                        <line x1="42.1154272" y1="8.66912" x2="46.5090272" y2="8.66912" id="Stroke-9"></line>
                                        <path d="M33.4663072,14.5304 C24.60722,14.5304 17.6738894,14.5304 12.6663072,14.5304 M4.66630716,14.5304 C4.05474248,14.5304 3.08316915,14.5304 1.75158716,14.5304 C0.354787158,14.5304 0.0859871581,13.516 0.0267871581,12.948 C0.0267871581,12.948 -0.325212842,11.8376 1.52278716,9.7368 C3.52918716,7.4568 5.49078716,6.8696 6.18358716,6.6904 C8.56598716,6.0712 9.73398716,6.3688 11.9835872,6.2376 C15.7579872,6.0168 17.8363872,5.236 17.8363872,5.236 C18.2747872,5.0264 18.6091872,4.8712 19.2267872,5.3656 L20.8107872,6.4696 C20.9067872,6.5352 21.0203872,6.572 21.1355872,6.572 L22.5867872,6.5816 L29.7739872,6.6248 C30.1787872,6.628 30.5739872,6.58 30.9659872,6.4776 C32.3099872,6.1256 35.7435872,5.2664 38.1291872,5.0056 C42.1115872,4.5736 45.2683872,6.5032 45.2683872,6.5032 C45.7803872,6.8744 46.3643872,7.316 46.3643872,8.2104 L46.3643872,11.6456 C46.3643872,12.1864 46.0539872,12.6792 45.5659872,12.9144 L42.4379872,14.4232 C42.2907872,14.4936 42.1275872,14.5304 41.9643872,14.5304 C41.7417038,14.5304 41.5756771,14.5304 41.4663072,14.5304" id="Shape"></path>
                                        <path d="M37.1303072,10.07872 C39.3575072,10.07872 41.1655072,11.91232 41.1655072,14.17472 C41.1655072,16.43552 39.3575072,18.26912 37.1303072,18.26912 C34.8999072,18.26912 33.0935072,16.43552 33.0935072,14.17472 C33.0935072,11.91232 34.8999072,10.07872 37.1303072,10.07872 Z" id="Stroke-15"></path>
                                        <path d="M9.02150716,10.07872 C11.2519072,10.07872 13.0583072,11.91232 13.0583072,14.17472 C13.0583072,16.43552 11.2519072,18.26912 9.02150716,18.26912 C6.79110716,18.26912 4.98630716,16.43552 4.98630716,14.17472 C4.98630716,11.91232 6.79110716,10.07872 9.02150716,10.07872 Z" id="Stroke-19"></path>
                                    </g>
                                </g>
                            </g>
                            <g id="home_ic-/parking-/-color_sportscar">
                                <g id="home_ic-/-bonnet-_-color-/-sportcar/--default" fill="#EAAD37">
                                    <path d="M53.40208,29.83408 C53.91408,30.20528 54.49808,30.64688 54.49808,31.54128 L54.49808,34.97648 C54.49808,35.51728 54.18768,36.01008 53.69968,36.24528 L50.57168,37.75408 C50.42448,37.82448 50.26128,37.86128 50.09808,37.86128 L49.2838887,37.8609612 C49.2938144,37.7438447 49.29888,37.6253213 49.29888,37.5056 C49.29888,35.2432 47.49248,33.4096 45.26368,33.4096 C43.03488,33.4096 41.22688,35.2432 41.22688,37.5056 C41.22688,37.6253213 41.2319501,37.7438447 41.2418843,37.8609612 L21.1766884,37.8609612 C21.1866144,37.7438447 21.19168,37.6253213 21.19168,37.5056 C21.19168,35.2432 19.38528,33.4096 17.15488,33.4096 C14.92608,33.4096 13.11968,35.2432 13.11968,37.5056 C13.11968,37.6253213 13.1247456,37.7438447 13.1346713,37.8609612 L9.88528,37.86128 C8.48848,37.86128 8.21968,36.84688 8.16048,36.27888 C8.16048,36.27888 7.80848,35.16848 9.65648,33.06768 C11.66288,30.78768 13.62448,30.20048 14.31728,30.02128 C16.69968,29.40208 17.86768,29.69968 20.11728,29.56848 C23.89168,29.34768 25.97008,28.56688 25.97008,28.56688 C26.40848,28.35728 26.74288,28.20208 27.36048,28.69648 L28.94448,29.80048 C29.04048,29.86608 29.15408,29.90288 29.26928,29.90288 L37.90768,29.95568 C38.31248,29.95888 38.70768,29.91088 39.09968,29.80848 C40.44368,29.45648 43.87728,28.59728 46.26288,28.33648 C50.24528,27.90448 53.40208,29.83408 53.40208,29.83408 Z" id="Combined-Shape"></path>
                                </g>
                                <g id="home_ic/parking/homhome_ic_status_parking_sportscar" stroke="#505050" stroke-width="2">
                                    <g id="Group" transform="translate(8.133693, 23.330880)">
                                        <path d="M18.1699025,5.06024295 C20.9515887,3.57563373 23.1819872,1.5552 23.1819872,1.5552 C24.1867872,0.7424 25.5451872,0 26.8395872,0 L29.1835872,0 L22.5867872,6.5808" id="Stroke-3" stroke-linecap="round" stroke-linejoin="round"></path>
                                        <path d="M33.6666561,5.83947694 C33.789423,5.37299762 33.9735734,4.67327864 34.2191072,3.74032 C34.3903072,3.08592 34.9807072,2.62992 35.6575072,2.62992 L37.0463072,2.62992 C37.4495072,2.62992 37.7759072,2.95632 37.7759072,3.35952 C37.7759072,4.29712 37.7759072,5.00032 37.7759072,5.46912" id="Path"></path>
                                        <line x1="42.1154272" y1="8.66912" x2="46.5090272" y2="8.66912" id="Stroke-9"></line>
                                        <path d="M33.4663072,14.5304 C24.60722,14.5304 17.6738894,14.5304 12.6663072,14.5304 M4.66630716,14.5304 C4.05474248,14.5304 3.08316915,14.5304 1.75158716,14.5304 C0.354787158,14.5304 0.0859871581,13.516 0.0267871581,12.948 C0.0267871581,12.948 -0.325212842,11.8376 1.52278716,9.7368 C3.52918716,7.4568 5.49078716,6.8696 6.18358716,6.6904 C8.56598716,6.0712 9.73398716,6.3688 11.9835872,6.2376 C15.7579872,6.0168 17.8363872,5.236 17.8363872,5.236 C18.2747872,5.0264 18.6091872,4.8712 19.2267872,5.3656 L20.8107872,6.4696 C20.9067872,6.5352 21.0203872,6.572 21.1355872,6.572 L22.5867872,6.5816 L29.7739872,6.6248 C30.1787872,6.628 30.5739872,6.58 30.9659872,6.4776 C32.3099872,6.1256 35.7435872,5.2664 38.1291872,5.0056 C42.1115872,4.5736 45.2683872,6.5032 45.2683872,6.5032 C45.7803872,6.8744 46.3643872,7.316 46.3643872,8.2104 L46.3643872,11.6456 C46.3643872,12.1864 46.0539872,12.6792 45.5659872,12.9144 L42.4379872,14.4232 C42.2907872,14.4936 42.1275872,14.5304 41.9643872,14.5304 C41.7417038,14.5304 41.5756771,14.5304 41.4663072,14.5304" id="Shape"></path>
                                        <path d="M37.1303072,10.07872 C39.3575072,10.07872 41.1655072,11.91232 41.1655072,14.17472 C41.1655072,16.43552 39.3575072,18.26912 37.1303072,18.26912 C34.8999072,18.26912 33.0935072,16.43552 33.0935072,14.17472 C33.0935072,11.91232 34.8999072,10.07872 37.1303072,10.07872 Z" id="Stroke-15"></path>
                                        <path d="M9.02150716,10.07872 C11.2519072,10.07872 13.0583072,11.91232 13.0583072,14.17472 C13.0583072,16.43552 11.2519072,18.26912 9.02150716,18.26912 C6.79110716,18.26912 4.98630716,16.43552 4.98630716,14.17472 C4.98630716,11.91232 6.79110716,10.07872 9.02150716,10.07872 Z" id="Stroke-19"></path>
                                    </g>
                                </g>
                            </g>
                        </g>
                    </g>
                </g>
            </g>
        </g>
    </g>
</svg>