<?xml version="1.0" encoding="UTF-8"?>
<svg width="40px" height="40px" viewBox="0 0 40 40" version="1.1" xmlns="http://www.w3.org/2000/svg" xmlns:xlink="http://www.w3.org/1999/xlink">
    <title></title>
    <g id="ServicePlugin_1" stroke="none" stroke-width="1" fill="none" fill-rule="evenodd">
        <g id="serviceplugin/vehicleinformationparkinglocationcard" transform="translate(-421.000000, -781.000000)">
            <g id="Group-12" transform="translate(380.000000, 342.000000)">
                <g id="Group-9" transform="translate(20.000000, 438.000000)">
                    <g id="area/svg-copy-2" transform="translate(21.000000, 1.000000)" fill="#36F3F6" opacity="0.4">
                        <rect id="Rectangle" x="0" y="0" width="40" height="40"></rect>
                    </g>
                    <g id="Group-10" transform="translate(20.742641, 0.000000)">
                        <g id="Guideline/Area" transform="translate(0.000000, 1.000000)" stroke="#FF5656" stroke-dasharray="1,1" stroke-width="0.5">
                            <path d="M0,0 L138,0 L138,45 L0,45 L0,0 Z" id="Rectangle"></path>
                        </g>
                        <line x1="39.5" y1="0.5" x2="39.5" y2="45.5" id="Line" stroke="#FF5656" stroke-width="0.5" stroke-dasharray="1,1"></line>
                        <line x1="0.5" y1="21.5" x2="146.5" y2="21.5" id="Line-2-Copy" stroke="#FF5656" stroke-width="0.5" stroke-dasharray="3,3"></line>
                        <g id="home_ic-/parking-/-color_sedan" transform="translate(0.257359, 1.000000)">
                            <g id="home_ic-/-bonnet-_-color-/-sedan-/-default" fill="#E4595B">
                                <path d="M11.2154983,15.54 C11.2154983,15.54 12.0511842,17.0795402 13.2368674,17.0795402 L26.2987669,17.0795402 C29.9284064,17.0795402 32.6396987,18.73188 32.9222061,18.9105114 L32.9465619,18.9261143 L32.9465619,18.9261143 C33.7628634,19.4844571 33.9997846,20.22855 33.9997846,21.1125017 L33.9997846,22.115552 C33.9997846,22.8476258 33.4839424,23.442026 32.8485627,23.442026 L30.3812432,23.4425723 C30.3812432,22.0286865 29.2526365,20.8824994 27.8591088,20.8824994 C26.465581,20.8824994 25.3358974,22.0286865 25.3358974,23.4425723 L25.3358974,23.4425723 L14.3995046,23.4425723 C14.3995046,22.0286865 13.269821,20.8824994 11.8762933,20.8824994 C10.4838424,20.8824994 9.35415881,22.0286865 9.35415881,23.4425723 L9.35415881,23.4425723 L8.92274675,23.442026 C6.33710696,23.414478 6.01774684,22.0317503 6.00076601,20.9626377 L6,18.1721876 C6,17.6105668 6.36830486,17.1472843 6.84214737,17.0860961 L6.84214737,17.0871887 L11.2154983,15.54 Z" id="Combined-Shape" transform="translate(19.999892, 19.491286) scale(-1, 1) translate(-19.999892, -19.491286) "></path>
                            </g>
                            <g id="home_ic/parking/home_ic_status_parking_sedan" stroke="#505050" stroke-width="1.25">
                                <g id="Group-19" transform="translate(20.000000, 20.000000) scale(-1, 1) translate(-20.000000, -20.000000) translate(6.000000, 14.000000)">
                                    <path d="M5.21571373,1.53844753 C5.21571373,1.53844753 6.0513996,3.07798771 7.23708279,3.07798771 L20.2989823,3.07798771 C24.1360297,3.07798771 26.9467773,4.9245618 26.9467773,4.9245618 C27.7630787,5.48290462 28,6.2269975 28,7.11094924 L28,8.11399954 C28,8.8460733 27.4841578,9.44047348 26.8487781,9.44047348 C25.5324699,9.44047348 24.5828772,9.44047348 24,9.44047348 M19,9.44047348 C16.3305898,9.44047348 12.6639226,9.44047348 8,9.44047348 M3,9.44047348 C2.98293366,9.44047348 2.95725437,9.44047348 2.92296213,9.44047348 C0.256521104,9.41206465 0.000215382959,7.9424539 0.000215382959,6.86182563 L0.000215382959,4.1706351 C0.000215382959,3.60901434 0.368520242,3.14573185 0.842362751,3.08454359 L0.842362751,3.08563624 C4.55556496,2.19294332 5.26525181,1.44994309 6.82139368,0.683997268 C7.98984623,0.108172092 8.88153168,0 9.65798725,0 L13.036269,0 C13.9871847,0 14.9273313,0.197769178 15.8125553,0.582381061 C16.2131676,0.756111996 16.5922416,0.987753244 16.9573157,1.24452538 L19.5623726,3.07798771" id="Shape"></path>
                                    <line x1="0" y1="5.33714546" x2="1.68644857" y2="5.33714546" id="Stroke-5" stroke-linecap="square"></line>
                                    <line x1="10.8058707" y1="3.07820624" x2="10.8058707" y2="0.00021852948" id="Stroke-7"></line>
                                    <path d="M8.39972,9.4410198 C8.39972,10.8538129 7.27003638,12 5.87650864,12 C4.48405781,12 3.3543742,10.8538129 3.3543742,9.4410198 C3.3543742,8.02713408 4.48405781,6.88094696 5.87650864,6.88094696 C7.27003638,6.88094696 8.39972,8.02713408 8.39972,9.4410198 Z" id="Stroke-11"></path>
                                    <path d="M24.3814586,9.4410198 C24.3814586,10.8538129 23.2528519,12 21.8593242,12 C20.4657964,12 19.3361128,10.8538129 19.3361128,9.4410198 C19.3361128,8.02713408 20.4657964,6.88094696 21.8593242,6.88094696 C23.2528519,6.88094696 24.3814586,8.02713408 24.3814586,9.4410198 Z" id="Stroke-15"></path>
                                </g>
                            </g>
                        </g>
                    </g>
                </g>
            </g>
            <g id="Group-12" transform="translate(380.000000, 342.000000)">
                <g id="Group-9" transform="translate(20.000000, 438.000000)">
                    <g id="area/svg-copy-2" transform="translate(21.000000, 1.000000)" fill="#36F3F6" opacity="0.4">
                        <rect id="Rectangle" x="0" y="0" width="40" height="40"></rect>
                    </g>
                    <g id="Group-10" transform="translate(20.742641, 0.000000)">
                        <g id="Guideline/Area" transform="translate(0.000000, 1.000000)" stroke="#FF5656" stroke-dasharray="1,1" stroke-width="0.5">
                            <path d="M0,0 L138,0 L138,45 L0,45 L0,0 Z" id="Rectangle"></path>
                        </g>
                        <line x1="39.5" y1="0.5" x2="39.5" y2="45.5" id="Line" stroke="#FF5656" stroke-width="0.5" stroke-dasharray="1,1"></line>
                        <line x1="0.5" y1="21.5" x2="146.5" y2="21.5" id="Line-2-Copy" stroke="#FF5656" stroke-width="0.5" stroke-dasharray="3,3"></line>
                        <g id="home_ic-/parking-/-color_sedan" transform="translate(0.257359, 1.000000)">
                            <g id="home_ic-/-bonnet-_-color-/-sedan-/-default" fill="#E4595B">
                                <path d="M11.2154983,15.54 C11.2154983,15.54 12.0511842,17.0795402 13.2368674,17.0795402 L26.2987669,17.0795402 C29.9284064,17.0795402 32.6396987,18.73188 32.9222061,18.9105114 L32.9465619,18.9261143 L32.9465619,18.9261143 C33.7628634,19.4844571 33.9997846,20.22855 33.9997846,21.1125017 L33.9997846,22.115552 C33.9997846,22.8476258 33.4839424,23.442026 32.8485627,23.442026 L30.3812432,23.4425723 C30.3812432,22.0286865 29.2526365,20.8824994 27.8591088,20.8824994 C26.465581,20.8824994 25.3358974,22.0286865 25.3358974,23.4425723 L25.3358974,23.4425723 L14.3995046,23.4425723 C14.3995046,22.0286865 13.269821,20.8824994 11.8762933,20.8824994 C10.4838424,20.8824994 9.35415881,22.0286865 9.35415881,23.4425723 L9.35415881,23.4425723 L8.92274675,23.442026 C6.33710696,23.414478 6.01774684,22.0317503 6.00076601,20.9626377 L6,18.1721876 C6,17.6105668 6.36830486,17.1472843 6.84214737,17.0860961 L6.84214737,17.0871887 L11.2154983,15.54 Z" id="Combined-Shape" transform="translate(19.999892, 19.491286) scale(-1, 1) translate(-19.999892, -19.491286) "></path>
                            </g>
                            <g id="home_ic/parking/home_ic_status_parking_sedan" stroke="#505050" stroke-width="1.25">
                                <g id="Group-19" transform="translate(20.000000, 20.000000) scale(-1, 1) translate(-20.000000, -20.000000) translate(6.000000, 14.000000)">
                                    <path d="M5.21571373,1.53844753 C5.21571373,1.53844753 6.0513996,3.07798771 7.23708279,3.07798771 L20.2989823,3.07798771 C24.1360297,3.07798771 26.9467773,4.9245618 26.9467773,4.9245618 C27.7630787,5.48290462 28,6.2269975 28,7.11094924 L28,8.11399954 C28,8.8460733 27.4841578,9.44047348 26.8487781,9.44047348 C25.5324699,9.44047348 24.5828772,9.44047348 24,9.44047348 M19,9.44047348 C16.3305898,9.44047348 12.6639226,9.44047348 8,9.44047348 M3,9.44047348 C2.98293366,9.44047348 2.95725437,9.44047348 2.92296213,9.44047348 C0.256521104,9.41206465 0.000215382959,7.9424539 0.000215382959,6.86182563 L0.000215382959,4.1706351 C0.000215382959,3.60901434 0.368520242,3.14573185 0.842362751,3.08454359 L0.842362751,3.08563624 C4.55556496,2.19294332 5.26525181,1.44994309 6.82139368,0.683997268 C7.98984623,0.108172092 8.88153168,0 9.65798725,0 L13.036269,0 C13.9871847,0 14.9273313,0.197769178 15.8125553,0.582381061 C16.2131676,0.756111996 16.5922416,0.987753244 16.9573157,1.24452538 L19.5623726,3.07798771" id="Shape"></path>
                                    <line x1="0" y1="5.33714546" x2="1.68644857" y2="5.33714546" id="Stroke-5" stroke-linecap="square"></line>
                                    <line x1="10.8058707" y1="3.07820624" x2="10.8058707" y2="0.00021852948" id="Stroke-7"></line>
                                    <path d="M8.39972,9.4410198 C8.39972,10.8538129 7.27003638,12 5.87650864,12 C4.48405781,12 3.3543742,10.8538129 3.3543742,9.4410198 C3.3543742,8.02713408 4.48405781,6.88094696 5.87650864,6.88094696 C7.27003638,6.88094696 8.39972,8.02713408 8.39972,9.4410198 Z" id="Stroke-11"></path>
                                    <path d="M24.3814586,9.4410198 C24.3814586,10.8538129 23.2528519,12 21.8593242,12 C20.4657964,12 19.3361128,10.8538129 19.3361128,9.4410198 C19.3361128,8.02713408 20.4657964,6.88094696 21.8593242,6.88094696 C23.2528519,6.88094696 24.3814586,8.02713408 24.3814586,9.4410198 Z" id="Stroke-15"></path>
                                </g>
                            </g>
                        </g>
                    </g>
                </g>
                <g id="Group-9" transform="translate(20.000000, 438.000000)">
                    <g id="area/svg-copy-2" transform="translate(21.000000, 1.000000)" fill="#36F3F6" opacity="0.4">
                        <rect id="Rectangle" x="0" y="0" width="40" height="40"></rect>
                    </g>
                    <g id="Group-10" transform="translate(20.742641, 0.000000)">
                        <g id="Guideline/Area" transform="translate(0.000000, 1.000000)" stroke="#FF5656" stroke-dasharray="1,1" stroke-width="0.5">
                            <path d="M0,0 L138,0 L138,45 L0,45 L0,0 Z" id="Rectangle"></path>
                        </g>
                        <line x1="39.5" y1="0.5" x2="39.5" y2="45.5" id="Line" stroke="#FF5656" stroke-width="0.5" stroke-dasharray="1,1"></line>
                        <line x1="0.5" y1="21.5" x2="146.5" y2="21.5" id="Line-2-Copy" stroke="#FF5656" stroke-width="0.5" stroke-dasharray="3,3"></line>
                        <g id="home_ic-/parking-/-color_sedan" transform="translate(0.257359, 1.000000)">
                            <g id="home_ic-/-bonnet-_-color-/-sedan-/-default" fill="#E4595B">
                                <path d="M11.2154983,15.54 C11.2154983,15.54 12.0511842,17.0795402 13.2368674,17.0795402 L26.2987669,17.0795402 C29.9284064,17.0795402 32.6396987,18.73188 32.9222061,18.9105114 L32.9465619,18.9261143 L32.9465619,18.9261143 C33.7628634,19.4844571 33.9997846,20.22855 33.9997846,21.1125017 L33.9997846,22.115552 C33.9997846,22.8476258 33.4839424,23.442026 32.8485627,23.442026 L30.3812432,23.4425723 C30.3812432,22.0286865 29.2526365,20.8824994 27.8591088,20.8824994 C26.465581,20.8824994 25.3358974,22.0286865 25.3358974,23.4425723 L25.3358974,23.4425723 L14.3995046,23.4425723 C14.3995046,22.0286865 13.269821,20.8824994 11.8762933,20.8824994 C10.4838424,20.8824994 9.35415881,22.0286865 9.35415881,23.4425723 L9.35415881,23.4425723 L8.92274675,23.442026 C6.33710696,23.414478 6.01774684,22.0317503 6.00076601,20.9626377 L6,18.1721876 C6,17.6105668 6.36830486,17.1472843 6.84214737,17.0860961 L6.84214737,17.0871887 L11.2154983,15.54 Z" id="Combined-Shape" transform="translate(19.999892, 19.491286) scale(-1, 1) translate(-19.999892, -19.491286) "></path>
                            </g>
                            <g id="home_ic/parking/home_ic_status_parking_sedan" stroke="#505050" stroke-width="1.25">
                                <g id="Group-19" transform="translate(20.000000, 20.000000) scale(-1, 1) translate(-20.000000, -20.000000) translate(6.000000, 14.000000)">
                                    <path d="M5.21571373,1.53844753 C5.21571373,1.53844753 6.0513996,3.07798771 7.23708279,3.07798771 L20.2989823,3.07798771 C24.1360297,3.07798771 26.9467773,4.9245618 26.9467773,4.9245618 C27.7630787,5.48290462 28,6.2269975 28,7.11094924 L28,8.11399954 C28,8.8460733 27.4841578,9.44047348 26.8487781,9.44047348 C25.5324699,9.44047348 24.5828772,9.44047348 24,9.44047348 M19,9.44047348 C16.3305898,9.44047348 12.6639226,9.44047348 8,9.44047348 M3,9.44047348 C2.98293366,9.44047348 2.95725437,9.44047348 2.92296213,9.44047348 C0.256521104,9.41206465 0.000215382959,7.9424539 0.000215382959,6.86182563 L0.000215382959,4.1706351 C0.000215382959,3.60901434 0.368520242,3.14573185 0.842362751,3.08454359 L0.842362751,3.08563624 C4.55556496,2.19294332 5.26525181,1.44994309 6.82139368,0.683997268 C7.98984623,0.108172092 8.88153168,0 9.65798725,0 L13.036269,0 C13.9871847,0 14.9273313,0.197769178 15.8125553,0.582381061 C16.2131676,0.756111996 16.5922416,0.987753244 16.9573157,1.24452538 L19.5623726,3.07798771" id="Shape"></path>
                                    <line x1="0" y1="5.33714546" x2="1.68644857" y2="5.33714546" id="Stroke-5" stroke-linecap="square"></line>
                                    <line x1="10.8058707" y1="3.07820624" x2="10.8058707" y2="0.00021852948" id="Stroke-7"></line>
                                    <path d="M8.39972,9.4410198 C8.39972,10.8538129 7.27003638,12 5.87650864,12 C4.48405781,12 3.3543742,10.8538129 3.3543742,9.4410198 C3.3543742,8.02713408 4.48405781,6.88094696 5.87650864,6.88094696 C7.27003638,6.88094696 8.39972,8.02713408 8.39972,9.4410198 Z" id="Stroke-11"></path>
                                    <path d="M24.3814586,9.4410198 C24.3814586,10.8538129 23.2528519,12 21.8593242,12 C20.4657964,12 19.3361128,10.8538129 19.3361128,9.4410198 C19.3361128,8.02713408 20.4657964,6.88094696 21.8593242,6.88094696 C23.2528519,6.88094696 24.3814586,8.02713408 24.3814586,9.4410198 Z" id="Stroke-15"></path>
                                </g>
                            </g>
                        </g>
                    </g>
                    <g id="Group-10" transform="translate(20.742641, 0.000000)">
                        <g id="Guideline/Area" transform="translate(0.000000, 1.000000)" stroke="#FF5656" stroke-dasharray="1,1" stroke-width="0.5">
                            <path d="M0,0 L138,0 L138,45 L0,45 L0,0 Z" id="Rectangle"></path>
                        </g>
                        <line x1="39.5" y1="0.5" x2="39.5" y2="45.5" id="Line" stroke="#FF5656" stroke-width="0.5" stroke-dasharray="1,1"></line>
                        <line x1="0.5" y1="21.5" x2="146.5" y2="21.5" id="Line-2-Copy" stroke="#FF5656" stroke-width="0.5" stroke-dasharray="3,3"></line>
                        <g id="home_ic-/parking-/-color_sedan" transform="translate(0.257359, 1.000000)">
                            <g id="home_ic-/-bonnet-_-color-/-sedan-/-default" fill="#E4595B">
                                <path d="M11.2154983,15.54 C11.2154983,15.54 12.0511842,17.0795402 13.2368674,17.0795402 L26.2987669,17.0795402 C29.9284064,17.0795402 32.6396987,18.73188 32.9222061,18.9105114 L32.9465619,18.9261143 L32.9465619,18.9261143 C33.7628634,19.4844571 33.9997846,20.22855 33.9997846,21.1125017 L33.9997846,22.115552 C33.9997846,22.8476258 33.4839424,23.442026 32.8485627,23.442026 L30.3812432,23.4425723 C30.3812432,22.0286865 29.2526365,20.8824994 27.8591088,20.8824994 C26.465581,20.8824994 25.3358974,22.0286865 25.3358974,23.4425723 L25.3358974,23.4425723 L14.3995046,23.4425723 C14.3995046,22.0286865 13.269821,20.8824994 11.8762933,20.8824994 C10.4838424,20.8824994 9.35415881,22.0286865 9.35415881,23.4425723 L9.35415881,23.4425723 L8.92274675,23.442026 C6.33710696,23.414478 6.01774684,22.0317503 6.00076601,20.9626377 L6,18.1721876 C6,17.6105668 6.36830486,17.1472843 6.84214737,17.0860961 L6.84214737,17.0871887 L11.2154983,15.54 Z" id="Combined-Shape" transform="translate(19.999892, 19.491286) scale(-1, 1) translate(-19.999892, -19.491286) "></path>
                            </g>
                            <g id="home_ic/parking/home_ic_status_parking_sedan" stroke="#505050" stroke-width="1.25">
                                <g id="Group-19" transform="translate(20.000000, 20.000000) scale(-1, 1) translate(-20.000000, -20.000000) translate(6.000000, 14.000000)">
                                    <path d="M5.21571373,1.53844753 C5.21571373,1.53844753 6.0513996,3.07798771 7.23708279,3.07798771 L20.2989823,3.07798771 C24.1360297,3.07798771 26.9467773,4.9245618 26.9467773,4.9245618 C27.7630787,5.48290462 28,6.2269975 28,7.11094924 L28,8.11399954 C28,8.8460733 27.4841578,9.44047348 26.8487781,9.44047348 C25.5324699,9.44047348 24.5828772,9.44047348 24,9.44047348 M19,9.44047348 C16.3305898,9.44047348 12.6639226,9.44047348 8,9.44047348 M3,9.44047348 C2.98293366,9.44047348 2.95725437,9.44047348 2.92296213,9.44047348 C0.256521104,9.41206465 0.000215382959,7.9424539 0.000215382959,6.86182563 L0.000215382959,4.1706351 C0.000215382959,3.60901434 0.368520242,3.14573185 0.842362751,3.08454359 L0.842362751,3.08563624 C4.55556496,2.19294332 5.26525181,1.44994309 6.82139368,0.683997268 C7.98984623,0.108172092 8.88153168,0 9.65798725,0 L13.036269,0 C13.9871847,0 14.9273313,0.197769178 15.8125553,0.582381061 C16.2131676,0.756111996 16.5922416,0.987753244 16.9573157,1.24452538 L19.5623726,3.07798771" id="Shape"></path>
                                    <line x1="0" y1="5.33714546" x2="1.68644857" y2="5.33714546" id="Stroke-5" stroke-linecap="square"></line>
                                    <line x1="10.8058707" y1="3.07820624" x2="10.8058707" y2="0.00021852948" id="Stroke-7"></line>
                                    <path d="M8.39972,9.4410198 C8.39972,10.8538129 7.27003638,12 5.87650864,12 C4.48405781,12 3.3543742,10.8538129 3.3543742,9.4410198 C3.3543742,8.02713408 4.48405781,6.88094696 5.87650864,6.88094696 C7.27003638,6.88094696 8.39972,8.02713408 8.39972,9.4410198 Z" id="Stroke-11"></path>
                                    <path d="M24.3814586,9.4410198 C24.3814586,10.8538129 23.2528519,12 21.8593242,12 C20.4657964,12 19.3361128,10.8538129 19.3361128,9.4410198 C19.3361128,8.02713408 20.4657964,6.88094696 21.8593242,6.88094696 C23.2528519,6.88094696 24.3814586,8.02713408 24.3814586,9.4410198 Z" id="Stroke-15"></path>
                                </g>
                            </g>
                        </g>
                        <g id="Group" transform="translate(0.257359, 1.000000)">
                            <g id="home_ic-/parking-/-color_sedan">
                                <g id="home_ic-/-bonnet-_-color-/-sedan-/-default" fill="#E4595B">
                                    <path d="M11.2154983,15.54 C11.2154983,15.54 12.0511842,17.0795402 13.2368674,17.0795402 L26.2987669,17.0795402 C29.9284064,17.0795402 32.6396987,18.73188 32.9222061,18.9105114 L32.9465619,18.9261143 L32.9465619,18.9261143 C33.7628634,19.4844571 33.9997846,20.22855 33.9997846,21.1125017 L33.9997846,22.115552 C33.9997846,22.8476258 33.4839424,23.442026 32.8485627,23.442026 L30.3812432,23.4425723 C30.3812432,22.0286865 29.2526365,20.8824994 27.8591088,20.8824994 C26.465581,20.8824994 25.3358974,22.0286865 25.3358974,23.4425723 L25.3358974,23.4425723 L14.3995046,23.4425723 C14.3995046,22.0286865 13.269821,20.8824994 11.8762933,20.8824994 C10.4838424,20.8824994 9.35415881,22.0286865 9.35415881,23.4425723 L9.35415881,23.4425723 L8.92274675,23.442026 C6.33710696,23.414478 6.01774684,22.0317503 6.00076601,20.9626377 L6,18.1721876 C6,17.6105668 6.36830486,17.1472843 6.84214737,17.0860961 L6.84214737,17.0871887 L11.2154983,15.54 Z" id="Combined-Shape" transform="translate(19.999892, 19.491286) scale(-1, 1) translate(-19.999892, -19.491286) "></path>
                                </g>
                                <g id="home_ic/parking/home_ic_status_parking_sedan" stroke="#505050" stroke-width="1.25">
                                    <g id="Group-19" transform="translate(20.000000, 20.000000) scale(-1, 1) translate(-20.000000, -20.000000) translate(6.000000, 14.000000)">
                                        <path d="M5.21571373,1.53844753 C5.21571373,1.53844753 6.0513996,3.07798771 7.23708279,3.07798771 L20.2989823,3.07798771 C24.1360297,3.07798771 26.9467773,4.9245618 26.9467773,4.9245618 C27.7630787,5.48290462 28,6.2269975 28,7.11094924 L28,8.11399954 C28,8.8460733 27.4841578,9.44047348 26.8487781,9.44047348 C25.5324699,9.44047348 24.5828772,9.44047348 24,9.44047348 M19,9.44047348 C16.3305898,9.44047348 12.6639226,9.44047348 8,9.44047348 M3,9.44047348 C2.98293366,9.44047348 2.95725437,9.44047348 2.92296213,9.44047348 C0.256521104,9.41206465 0.000215382959,7.9424539 0.000215382959,6.86182563 L0.000215382959,4.1706351 C0.000215382959,3.60901434 0.368520242,3.14573185 0.842362751,3.08454359 L0.842362751,3.08563624 C4.55556496,2.19294332 5.26525181,1.44994309 6.82139368,0.683997268 C7.98984623,0.108172092 8.88153168,0 9.65798725,0 L13.036269,0 C13.9871847,0 14.9273313,0.197769178 15.8125553,0.582381061 C16.2131676,0.756111996 16.5922416,0.987753244 16.9573157,1.24452538 L19.5623726,3.07798771" id="Shape"></path>
                                        <line x1="0" y1="5.33714546" x2="1.68644857" y2="5.33714546" id="Stroke-5" stroke-linecap="square"></line>
                                        <line x1="10.8058707" y1="3.07820624" x2="10.8058707" y2="0.00021852948" id="Stroke-7"></line>
                                        <path d="M8.39972,9.4410198 C8.39972,10.8538129 7.27003638,12 5.87650864,12 C4.48405781,12 3.3543742,10.8538129 3.3543742,9.4410198 C3.3543742,8.02713408 4.48405781,6.88094696 5.87650864,6.88094696 C7.27003638,6.88094696 8.39972,8.02713408 8.39972,9.4410198 Z" id="Stroke-11"></path>
                                        <path d="M24.3814586,9.4410198 C24.3814586,10.8538129 23.2528519,12 21.8593242,12 C20.4657964,12 19.3361128,10.8538129 19.3361128,9.4410198 C19.3361128,8.02713408 20.4657964,6.88094696 21.8593242,6.88094696 C23.2528519,6.88094696 24.3814586,8.02713408 24.3814586,9.4410198 Z" id="Stroke-15"></path>
                                    </g>
                                </g>
                            </g>
                            <g id="Group-2">
                                <g id="home_ic-/parking-/-color_sedan">
                                    <g id="home_ic-/-bonnet-_-color-/-sedan-/-default" fill="#E4595B">
                                        <path d="M11.2154983,15.54 C11.2154983,15.54 12.0511842,17.0795402 13.2368674,17.0795402 L26.2987669,17.0795402 C29.9284064,17.0795402 32.6396987,18.73188 32.9222061,18.9105114 L32.9465619,18.9261143 L32.9465619,18.9261143 C33.7628634,19.4844571 33.9997846,20.22855 33.9997846,21.1125017 L33.9997846,22.115552 C33.9997846,22.8476258 33.4839424,23.442026 32.8485627,23.442026 L30.3812432,23.4425723 C30.3812432,22.0286865 29.2526365,20.8824994 27.8591088,20.8824994 C26.465581,20.8824994 25.3358974,22.0286865 25.3358974,23.4425723 L25.3358974,23.4425723 L14.3995046,23.4425723 C14.3995046,22.0286865 13.269821,20.8824994 11.8762933,20.8824994 C10.4838424,20.8824994 9.35415881,22.0286865 9.35415881,23.4425723 L9.35415881,23.4425723 L8.92274675,23.442026 C6.33710696,23.414478 6.01774684,22.0317503 6.00076601,20.9626377 L6,18.1721876 C6,17.6105668 6.36830486,17.1472843 6.84214737,17.0860961 L6.84214737,17.0871887 L11.2154983,15.54 Z" id="Combined-Shape" transform="translate(19.999892, 19.491286) scale(-1, 1) translate(-19.999892, -19.491286) "></path>
                                    </g>
                                    <g id="home_ic/parking/home_ic_status_parking_sedan" stroke="#505050" stroke-width="1.25">
                                        <g id="Group-19" transform="translate(20.000000, 20.000000) scale(-1, 1) translate(-20.000000, -20.000000) translate(6.000000, 14.000000)">
                                            <path d="M5.21571373,1.53844753 C5.21571373,1.53844753 6.0513996,3.07798771 7.23708279,3.07798771 L20.2989823,3.07798771 C24.1360297,3.07798771 26.9467773,4.9245618 26.9467773,4.9245618 C27.7630787,5.48290462 28,6.2269975 28,7.11094924 L28,8.11399954 C28,8.8460733 27.4841578,9.44047348 26.8487781,9.44047348 C25.5324699,9.44047348 24.5828772,9.44047348 24,9.44047348 M19,9.44047348 C16.3305898,9.44047348 12.6639226,9.44047348 8,9.44047348 M3,9.44047348 C2.98293366,9.44047348 2.95725437,9.44047348 2.92296213,9.44047348 C0.256521104,9.41206465 0.000215382959,7.9424539 0.000215382959,6.86182563 L0.000215382959,4.1706351 C0.000215382959,3.60901434 0.368520242,3.14573185 0.842362751,3.08454359 L0.842362751,3.08563624 C4.55556496,2.19294332 5.26525181,1.44994309 6.82139368,0.683997268 C7.98984623,0.108172092 8.88153168,0 9.65798725,0 L13.036269,0 C13.9871847,0 14.9273313,0.197769178 15.8125553,0.582381061 C16.2131676,0.756111996 16.5922416,0.987753244 16.9573157,1.24452538 L19.5623726,3.07798771" id="Shape"></path>
                                            <line x1="0" y1="5.33714546" x2="1.68644857" y2="5.33714546" id="Stroke-5" stroke-linecap="square"></line>
                                            <line x1="10.8058707" y1="3.07820624" x2="10.8058707" y2="0.00021852948" id="Stroke-7"></line>
                                            <path d="M8.39972,9.4410198 C8.39972,10.8538129 7.27003638,12 5.87650864,12 C4.48405781,12 3.3543742,10.8538129 3.3543742,9.4410198 C3.3543742,8.02713408 4.48405781,6.88094696 5.87650864,6.88094696 C7.27003638,6.88094696 8.39972,8.02713408 8.39972,9.4410198 Z" id="Stroke-11"></path>
                                            <path d="M24.3814586,9.4410198 C24.3814586,10.8538129 23.2528519,12 21.8593242,12 C20.4657964,12 19.3361128,10.8538129 19.3361128,9.4410198 C19.3361128,8.02713408 20.4657964,6.88094696 21.8593242,6.88094696 C23.2528519,6.88094696 24.3814586,8.02713408 24.3814586,9.4410198 Z" id="Stroke-15"></path>
                                        </g>
                                    </g>
                                </g>
                                <g id="home_ic-/parking-/-color_sedan">
                                    <g id="home_ic-/-bonnet-_-color-/-sedan-/-default" fill="#E4595B">
                                        <path d="M11.2154983,15.54 C11.2154983,15.54 12.0511842,17.0795402 13.2368674,17.0795402 L26.2987669,17.0795402 C29.9284064,17.0795402 32.6396987,18.73188 32.9222061,18.9105114 L32.9465619,18.9261143 L32.9465619,18.9261143 C33.7628634,19.4844571 33.9997846,20.22855 33.9997846,21.1125017 L33.9997846,22.115552 C33.9997846,22.8476258 33.4839424,23.442026 32.8485627,23.442026 L30.3812432,23.4425723 C30.3812432,22.0286865 29.2526365,20.8824994 27.8591088,20.8824994 C26.465581,20.8824994 25.3358974,22.0286865 25.3358974,23.4425723 L25.3358974,23.4425723 L14.3995046,23.4425723 C14.3995046,22.0286865 13.269821,20.8824994 11.8762933,20.8824994 C10.4838424,20.8824994 9.35415881,22.0286865 9.35415881,23.4425723 L9.35415881,23.4425723 L8.92274675,23.442026 C6.33710696,23.414478 6.01774684,22.0317503 6.00076601,20.9626377 L6,18.1721876 C6,17.6105668 6.36830486,17.1472843 6.84214737,17.0860961 L6.84214737,17.0871887 L11.2154983,15.54 Z" id="Combined-Shape" transform="translate(19.999892, 19.491286) scale(-1, 1) translate(-19.999892, -19.491286) "></path>
                                    </g>
                                    <g id="home_ic/parking/home_ic_status_parking_sedan" stroke="#505050" stroke-width="1.25">
                                        <g id="Group-19" transform="translate(20.000000, 20.000000) scale(-1, 1) translate(-20.000000, -20.000000) translate(6.000000, 14.000000)">
                                            <path d="M5.21571373,1.53844753 C5.21571373,1.53844753 6.0513996,3.07798771 7.23708279,3.07798771 L20.2989823,3.07798771 C24.1360297,3.07798771 26.9467773,4.9245618 26.9467773,4.9245618 C27.7630787,5.48290462 28,6.2269975 28,7.11094924 L28,8.11399954 C28,8.8460733 27.4841578,9.44047348 26.8487781,9.44047348 C25.5324699,9.44047348 24.5828772,9.44047348 24,9.44047348 M19,9.44047348 C16.3305898,9.44047348 12.6639226,9.44047348 8,9.44047348 M3,9.44047348 C2.98293366,9.44047348 2.95725437,9.44047348 2.92296213,9.44047348 C0.256521104,9.41206465 0.000215382959,7.9424539 0.000215382959,6.86182563 L0.000215382959,4.1706351 C0.000215382959,3.60901434 0.368520242,3.14573185 0.842362751,3.08454359 L0.842362751,3.08563624 C4.55556496,2.19294332 5.26525181,1.44994309 6.82139368,0.683997268 C7.98984623,0.108172092 8.88153168,0 9.65798725,0 L13.036269,0 C13.9871847,0 14.9273313,0.197769178 15.8125553,0.582381061 C16.2131676,0.756111996 16.5922416,0.987753244 16.9573157,1.24452538 L19.5623726,3.07798771" id="Shape"></path>
                                            <line x1="0" y1="5.33714546" x2="1.68644857" y2="5.33714546" id="Stroke-5" stroke-linecap="square"></line>
                                            <line x1="10.8058707" y1="3.07820624" x2="10.8058707" y2="0.00021852948" id="Stroke-7"></line>
                                            <path d="M8.39972,9.4410198 C8.39972,10.8538129 7.27003638,12 5.87650864,12 C4.48405781,12 3.3543742,10.8538129 3.3543742,9.4410198 C3.3543742,8.02713408 4.48405781,6.88094696 5.87650864,6.88094696 C7.27003638,6.88094696 8.39972,8.02713408 8.39972,9.4410198 Z" id="Stroke-11"></path>
                                            <path d="M24.3814586,9.4410198 C24.3814586,10.8538129 23.2528519,12 21.8593242,12 C20.4657964,12 19.3361128,10.8538129 19.3361128,9.4410198 C19.3361128,8.02713408 20.4657964,6.88094696 21.8593242,6.88094696 C23.2528519,6.88094696 24.3814586,8.02713408 24.3814586,9.4410198 Z" id="Stroke-15"></path>
                                        </g>
                                    </g>
                                </g>
                                <g id="home_ic-/parking-/-color_sedan">
                                    <g id="home_ic-/-bonnet-_-color-/-sedan-/-default" fill="#E4595B">
                                        <path d="M11.2154983,15.54 C11.2154983,15.54 12.0511842,17.0795402 13.2368674,17.0795402 L26.2987669,17.0795402 C29.9284064,17.0795402 32.6396987,18.73188 32.9222061,18.9105114 L32.9465619,18.9261143 L32.9465619,18.9261143 C33.7628634,19.4844571 33.9997846,20.22855 33.9997846,21.1125017 L33.9997846,22.115552 C33.9997846,22.8476258 33.4839424,23.442026 32.8485627,23.442026 L30.3812432,23.4425723 C30.3812432,22.0286865 29.2526365,20.8824994 27.8591088,20.8824994 C26.465581,20.8824994 25.3358974,22.0286865 25.3358974,23.4425723 L25.3358974,23.4425723 L14.3995046,23.4425723 C14.3995046,22.0286865 13.269821,20.8824994 11.8762933,20.8824994 C10.4838424,20.8824994 9.35415881,22.0286865 9.35415881,23.4425723 L9.35415881,23.4425723 L8.92274675,23.442026 C6.33710696,23.414478 6.01774684,22.0317503 6.00076601,20.9626377 L6,18.1721876 C6,17.6105668 6.36830486,17.1472843 6.84214737,17.0860961 L6.84214737,17.0871887 L11.2154983,15.54 Z" id="Combined-Shape" transform="translate(19.999892, 19.491286) scale(-1, 1) translate(-19.999892, -19.491286) "></path>
                                    </g>
                                    <g id="home_ic/parking/home_ic_status_parking_sedan" stroke="#505050" stroke-width="1.25">
                                        <g id="Group-19" transform="translate(20.000000, 20.000000) scale(-1, 1) translate(-20.000000, -20.000000) translate(6.000000, 14.000000)">
                                            <path d="M5.21571373,1.53844753 C5.21571373,1.53844753 6.0513996,3.07798771 7.23708279,3.07798771 L20.2989823,3.07798771 C24.1360297,3.07798771 26.9467773,4.9245618 26.9467773,4.9245618 C27.7630787,5.48290462 28,6.2269975 28,7.11094924 L28,8.11399954 C28,8.8460733 27.4841578,9.44047348 26.8487781,9.44047348 C25.5324699,9.44047348 24.5828772,9.44047348 24,9.44047348 M19,9.44047348 C16.3305898,9.44047348 12.6639226,9.44047348 8,9.44047348 M3,9.44047348 C2.98293366,9.44047348 2.95725437,9.44047348 2.92296213,9.44047348 C0.256521104,9.41206465 0.000215382959,7.9424539 0.000215382959,6.86182563 L0.000215382959,4.1706351 C0.000215382959,3.60901434 0.368520242,3.14573185 0.842362751,3.08454359 L0.842362751,3.08563624 C4.55556496,2.19294332 5.26525181,1.44994309 6.82139368,0.683997268 C7.98984623,0.108172092 8.88153168,0 9.65798725,0 L13.036269,0 C13.9871847,0 14.9273313,0.197769178 15.8125553,0.582381061 C16.2131676,0.756111996 16.5922416,0.987753244 16.9573157,1.24452538 L19.5623726,3.07798771" id="Shape"></path>
                                            <line x1="0" y1="5.33714546" x2="1.68644857" y2="5.33714546" id="Stroke-5" stroke-linecap="square"></line>
                                            <line x1="10.8058707" y1="3.07820624" x2="10.8058707" y2="0.00021852948" id="Stroke-7"></line>
                                            <path d="M8.39972,9.4410198 C8.39972,10.8538129 7.27003638,12 5.87650864,12 C4.48405781,12 3.3543742,10.8538129 3.3543742,9.4410198 C3.3543742,8.02713408 4.48405781,6.88094696 5.87650864,6.88094696 C7.27003638,6.88094696 8.39972,8.02713408 8.39972,9.4410198 Z" id="Stroke-11"></path>
                                            <path d="M24.3814586,9.4410198 C24.3814586,10.8538129 23.2528519,12 21.8593242,12 C20.4657964,12 19.3361128,10.8538129 19.3361128,9.4410198 C19.3361128,8.02713408 20.4657964,6.88094696 21.8593242,6.88094696 C23.2528519,6.88094696 24.3814586,8.02713408 24.3814586,9.4410198 Z" id="Stroke-15"></path>
                                        </g>
                                    </g>
                                </g>
                            </g>
                        </g>
                    </g>
                </g>
            </g>
        </g>
    </g>
</svg>